<svg xmlns="http://www.w3.org/2000/svg" width="1200" height="760" viewBox="0 0 1200 760"><defs><linearGradient id="b" x1="0" x2="1" y1="0" y2="1"><stop stop-color="#d8c0a3"/><stop offset="1" stop-color="#8f7a65"/></linearGradient><pattern id="lines" width="40" height="40" patternUnits="userSpaceOnUse"><path d="M0 40V0h40" fill="none" stroke="#fff" opacity=".16"/></pattern></defs><rect width="1200" height="760" rx="28" fill="url(#b)"/><rect width="1200" height="760" rx="28" fill="url(#lines)"/><rect x="80" y="90" width="1060" height="470" rx="20" fill="#344552" opacity=".9"/><g fill="none" stroke="#fff" stroke-linecap="round"><path d="M158 182h345M158 240h250M158 298h410" stroke-width="10" opacity=".75"/><path d="M652 178l82 84 118-152M676 378l60 60 140-176" stroke="#f0a08f" stroke-width="16"/><path d="M158 404h360" stroke-width="10" opacity=".48"/></g><circle cx="604" cy="610" r="76" fill="#fff" opacity=".88"/><path d="M588 566l68 44-68 44z" fill="#e97868"/><text x="118" y="638" font-family="Noto Sans KR, Arial" font-size="42" font-weight="900" fill="#fff">FORMULA ENGLISH LAB</text><text x="118" y="688" font-family="Noto Sans KR, Arial" font-size="30" fill="#fff" opacity=".82">구조 · 풀이 · 검산으로 보이는 영어</text></svg>