<svg xmlns="http://www.w3.org/2000/svg" width="1000" height="620" viewBox="0 0 1000 620"><defs><pattern id="m" width="84" height="84" patternUnits="userSpaceOnUse"><path d="M84 0H0v84" fill="none" stroke="#fff" stroke-width="3" opacity=".44"/></pattern><linearGradient id="g" x1="0" x2="1"><stop stop-color="#e97868"/><stop offset=".55" stop-color="#5fbfca"/><stop offset="1" stop-color="#8fa77a"/></linearGradient></defs><rect width="1000" height="620" rx="32" fill="#f8f4ec"/><rect width="1000" height="620" rx="32" fill="url(#m)"/><path d="M140 422c162-138 284-176 366-116 116 84 196 48 354-140" fill="none" stroke="url(#g)" stroke-width="34" stroke-linecap="round" stroke-dasharray="1 62"/><g transform="translate(410 166)"><path d="M90 0c50 0 90 40 90 90 0 74-90 178-90 178S0 164 0 90C0 40 40 0 90 0z" fill="#e97868"/><circle cx="90" cy="88" r="34" fill="#fff"/></g><rect x="80" y="74" width="248" height="128" rx="24" fill="#fff" opacity=".86"/><rect x="672" y="394" width="248" height="110" rx="24" fill="#fff" opacity=".86"/><path d="M118 122h168M118 158h124M708 436h172M708 472h120" stroke="#202124" stroke-width="13" stroke-linecap="round" opacity=".2"/></svg>