<svg xmlns="http://www.w3.org/2000/svg" width="1600" height="720" viewBox="0 0 1600 720"><defs><linearGradient id="bg" x1="0" x2="1" y1="0" y2="1"><stop stop-color="#f8f4ec"/><stop offset="1" stop-color="#fffdfa"/></linearGradient><pattern id="grid" width="64" height="64" patternUnits="userSpaceOnUse"><path d="M64 0H0v64" fill="none" stroke="#fff" stroke-width="2" opacity=".7"/></pattern><linearGradient id="orange" x1="0" x2="1"><stop stop-color="#f0a08f"/><stop offset="1" stop-color="#d96862"/></linearGradient></defs><rect width="1600" height="720" rx="42" fill="url(#bg)"/><rect width="1600" height="720" rx="42" fill="url(#grid)"/><path d="M-40 454c155-68 259-61 313 21 55 83 143 103 266 60" fill="none" stroke="#f0a08f" stroke-width="132" stroke-linecap="round" opacity=".38"/><path d="M1332 98c88 40 136 99 142 176 6 75 47 127 124 156" fill="none" stroke="#dcc9b8" stroke-width="120" stroke-linecap="round" opacity=".72"/><path d="M1150 520h150v-118h118" fill="none" stroke="url(#orange)" stroke-width="70" stroke-linejoin="round"/><circle cx="312" cy="586" r="56" fill="#e6c7a6" opacity=".7"/><path d="M312 492l84 144H228z" fill="#e6c7a6" opacity=".64"/><g transform="translate(78 168)"><rect x="0" y="118" width="230" height="106" rx="40" fill="#e97868"/><path d="M44 126c20-88 87-128 166-106 52 15 92 58 107 119" fill="#dcc9b8"/><circle cx="158" cy="54" r="43" fill="#ffd1b8"/><path d="M126 35c26-31 73-26 91 7-18 2-35-1-51-11-15 18-30 24-40 4z" fill="#202034"/><path d="M56 118l-72-38 20-56 94 52z" fill="#6d65d8"/><path d="M92 123l-48-92 38-20 60 104z" fill="#8fa77a"/></g><g transform="translate(1298 158)"><rect x="20" y="164" width="132" height="150" rx="18" fill="#e6c7a6"/><circle cx="64" cy="78" r="34" fill="#ffd1b8"/><path d="M35 76c6-35 44-53 78-30-18 14-45 17-78 30z" fill="#202034"/><path d="M52 112c-20 44-12 85 26 122l54-30-20-84z" fill="#8fa77a"/><path d="M85 128l114-68 28 40-114 84z" fill="#8fa77a"/><path d="M202 42c7 18 17 31 34 38" stroke="#ffd1b8" stroke-width="18" stroke-linecap="round" fill="none"/><path d="M79 228c-2 50 10 91 35 123l51-7-32-128z" fill="#e7e7e7"/><path d="M46 232c-20 48-15 88 11 120h54l-18-118z" fill="#f4f4f4"/><rect x="-42" y="98" width="90" height="62" rx="6" fill="#fff" transform="rotate(-9)"/><circle cx="4" cy="128" r="6" fill="#e97868"/></g></svg>